<svg width="38" height="37" viewBox="0 0 38 37" fill="none" xmlns="http://www.w3.org/2000/svg">
<g clip-path="url(#clip0_89_993)">
<path d="M8.55805 7.93171C8.46767 7.93219 8.37835 7.95117 8.29559 7.9875C8.21283 8.02382 8.1384 8.07672 8.07687 8.14292C8.01535 8.20913 7.96804 8.28724 7.93786 8.37243C7.90769 8.45762 7.89529 8.54809 7.90143 8.63826L9.88626 36.3859C9.89821 36.5522 9.97248 36.7078 10.0942 36.8216C10.216 36.9355 10.3762 36.9992 10.5429 37.0001H27.7197C27.8864 36.9992 28.0467 36.9355 28.1684 36.8216C28.2901 36.7078 28.3644 36.5522 28.3764 36.3859L30.3612 8.63826C30.3674 8.54746 30.3547 8.45636 30.3241 8.37066C30.2935 8.28496 30.2455 8.2065 30.1832 8.14019C30.1209 8.07387 30.0455 8.02113 29.9619 7.98526C29.8782 7.94939 29.7881 7.93116 29.6971 7.93171H8.55805Z" fill="#E9E9FF"/>
<path d="M23.0611 0.00239152C23.0013 0.00771623 22.9425 0.021155 22.8863 0.0423378L18.9217 1.36556C18.7901 1.40894 18.6755 1.49251 18.594 1.60449C18.5125 1.71647 18.4682 1.85121 18.4673 1.98971V13.8812C18.4673 13.9681 18.4844 14.0541 18.5176 14.1344C18.5509 14.2147 18.5996 14.2876 18.6611 14.349C18.7225 14.4105 18.7954 14.4592 18.8757 14.4924C18.956 14.5257 19.042 14.5428 19.1289 14.5428C19.2158 14.5428 19.3018 14.5257 19.3821 14.4924C19.4624 14.4592 19.5353 14.4105 19.5967 14.349C19.6582 14.2876 19.7069 14.2147 19.7401 14.1344C19.7734 14.0541 19.7905 13.9681 19.7905 13.8812V2.46657L23.3058 1.29565C23.4626 1.24884 23.5966 1.14555 23.6817 1.00573C23.7668 0.865922 23.7971 0.699518 23.7666 0.538683C23.7362 0.377849 23.6472 0.234005 23.5169 0.134951C23.3866 0.0358975 23.2242 -0.0113317 23.0611 0.00239152Z" fill="#FF8A26"/>
<path d="M18.4673 7.9317V13.8812C18.4673 13.9681 18.4844 14.0541 18.5176 14.1344C18.5509 14.2146 18.5996 14.2876 18.6611 14.349C18.7225 14.4105 18.7954 14.4592 18.8757 14.4924C18.956 14.5257 19.042 14.5428 19.1289 14.5428C19.2158 14.5428 19.3018 14.5257 19.3821 14.4924C19.4623 14.4592 19.5353 14.4105 19.5967 14.349C19.6582 14.2876 19.7069 14.2146 19.7401 14.1344C19.7734 14.0541 19.7905 13.9681 19.7905 13.8812V7.9317H18.4673Z" fill="#FFA95E"/>
<path d="M15.1514 11.8964C12.9743 11.8964 11.6461 12.6728 11.1293 13.1197C11.0507 13.187 10.9891 13.2717 10.9492 13.367C10.9093 13.4624 10.8923 13.5658 10.8996 13.669L12.3427 33.7469C12.3558 33.9127 12.431 34.0675 12.5531 34.1804C12.6753 34.2933 12.8354 34.356 13.0018 34.3561H25.2553C25.4216 34.356 25.5818 34.2933 25.7039 34.1804C25.8261 34.0675 25.9012 33.9127 25.9144 33.7469L27.3175 14.2082C27.327 14.0787 27.2982 13.9492 27.2347 13.8359C27.1711 13.7226 27.0756 13.6305 26.96 13.5711C26.8445 13.5118 26.714 13.4877 26.5849 13.502C26.4558 13.5163 26.3337 13.5683 26.2339 13.6515C26.0142 13.8362 24.8858 14.5403 23.0807 14.5403C21.6127 14.5403 20.4168 13.9511 19.1884 13.297C17.9601 12.6404 16.6993 11.8964 15.1514 11.8964Z" fill="url(#paint0_linear_89_993)"/>
<path d="M27.0885 7.93171C27.1769 7.93549 27.2638 7.95699 27.3438 7.99494C27.4238 8.03289 27.4954 8.08651 27.5543 8.15263C27.6132 8.21876 27.6582 8.29603 27.6867 8.37988C27.7152 8.46373 27.7265 8.55244 27.7201 8.64076L25.7328 36.3859C25.7208 36.5522 25.6466 36.7078 25.5248 36.8216C25.4031 36.9355 25.2429 36.9992 25.0762 37.0001H27.7176C27.8847 36.9999 28.0456 36.9364 28.1679 36.8225C28.2901 36.7086 28.3647 36.5526 28.3767 36.3859L30.3616 8.64076C30.3681 8.54976 30.3557 8.45839 30.3253 8.37239C30.2948 8.28639 30.2469 8.20762 30.1845 8.14104C30.1222 8.07445 30.0467 8.02148 29.9629 7.98545C29.879 7.94943 29.7887 7.93114 29.6974 7.93171H27.0885Z" fill="#D4D4E8"/>
<path opacity="0.75" d="M17.4657 17.1818C17.2939 17.1849 17.1301 17.2547 17.0088 17.3765L14.697 19.6884C14.5742 19.8123 14.5054 19.9796 14.5054 20.154C14.5054 20.3284 14.5742 20.4957 14.697 20.6196L17.0088 22.9315C17.0703 22.993 17.1433 23.0418 17.2236 23.0751C17.3039 23.1084 17.39 23.1256 17.477 23.1256C17.5639 23.1256 17.65 23.1084 17.7303 23.0751C17.8107 23.0418 17.8836 22.993 17.9451 22.9315L20.257 20.6196C20.3797 20.4957 20.4486 20.3284 20.4486 20.154C20.4486 19.9796 20.3797 19.8123 20.257 19.6884L17.9451 17.3765C17.8827 17.3138 17.8083 17.2643 17.7264 17.2308C17.6445 17.1974 17.5542 17.1807 17.4657 17.1818Z" fill="white"/>
<path d="M18.6373 18.068C18.76 18.1919 18.8289 18.3592 18.8289 18.5336C18.8289 18.708 18.76 18.8753 18.6373 18.9992L16.3254 21.3111C16.264 21.3726 16.191 21.4215 16.1107 21.4548C16.0303 21.4881 15.9442 21.5052 15.8573 21.5052C15.7703 21.5052 15.6842 21.4881 15.6039 21.4548C15.5236 21.4215 15.4506 21.3726 15.3892 21.3111L17.012 22.9339C17.136 23.0574 17.3038 23.1268 17.4788 23.1268C17.6538 23.1268 17.8217 23.0574 17.9457 22.9339L20.2576 20.6221C20.3811 20.4981 20.4504 20.3302 20.4504 20.1552C20.4504 19.9802 20.3811 19.8123 20.2576 19.6883L18.6373 18.068Z" fill="white"/>
<path opacity="0.75" d="M21.4331 21.476C21.2604 21.4785 21.0955 21.5484 20.9737 21.6707L18.6618 23.9826C18.5391 24.1065 18.4702 24.2739 18.4702 24.4482C18.4702 24.6226 18.5391 24.79 18.6618 24.9139L20.9737 27.2258C21.0351 27.2873 21.1081 27.3361 21.1884 27.3694C21.2688 27.4027 21.3549 27.4198 21.4418 27.4198C21.5288 27.4198 21.6149 27.4027 21.6952 27.3694C21.7755 27.3361 21.8485 27.2873 21.9099 27.2258L24.2218 24.9139C24.3445 24.79 24.4134 24.6226 24.4134 24.4482C24.4134 24.2739 24.3445 24.1065 24.2218 23.9826L21.9099 21.6707C21.8475 21.608 21.7731 21.5585 21.6912 21.5251C21.6093 21.4916 21.5215 21.4749 21.4331 21.476Z" fill="white"/>
<path d="M22.6012 22.3622C22.7239 22.4861 22.7927 22.6535 22.7927 22.8279C22.7927 23.0023 22.7239 23.1696 22.6012 23.2935L20.2893 25.6054C20.2278 25.6669 20.1548 25.7157 20.0745 25.749C19.9942 25.7823 19.9081 25.7994 19.8211 25.7994C19.7342 25.7994 19.6481 25.7823 19.5678 25.749C19.4874 25.7157 19.4145 25.6669 19.353 25.6054L20.9758 27.2257C21.0998 27.3492 21.2677 27.4185 21.4427 27.4185C21.6177 27.4185 21.7856 27.3492 21.9096 27.2257L24.2215 24.9138C24.3442 24.7899 24.4131 24.6226 24.4131 24.4482C24.4131 24.2738 24.3442 24.1065 24.2215 23.9826L22.6012 22.3622Z" fill="white"/>
<path opacity="0.75" d="M17.4657 25.7701C17.2939 25.7732 17.1301 25.8431 17.0088 25.9649L14.697 28.2768C14.5742 28.4006 14.5054 28.568 14.5054 28.7424C14.5054 28.9168 14.5742 29.0841 14.697 29.208L17.0088 31.5199C17.0703 31.5814 17.1433 31.6302 17.2236 31.6635C17.3039 31.6968 17.39 31.714 17.477 31.714C17.5639 31.714 17.65 31.6968 17.7303 31.6635C17.8107 31.6302 17.8836 31.5814 17.9451 31.5199L20.257 29.208C20.3797 29.0841 20.4486 28.9168 20.4486 28.7424C20.4486 28.568 20.3797 28.4006 20.257 28.2768L17.9451 25.9649C17.8827 25.9022 17.8083 25.8526 17.7264 25.8192C17.6445 25.7857 17.5542 25.7691 17.4657 25.7701Z" fill="white"/>
<path d="M18.6373 26.654C18.7608 26.778 18.8301 26.9459 18.8301 27.1209C18.8301 27.2959 18.7608 27.4637 18.6373 27.5877L16.3254 29.8971C16.264 29.9586 16.191 30.0075 16.1107 30.0408C16.0303 30.0741 15.9442 30.0912 15.8573 30.0912C15.7703 30.0912 15.6842 30.0741 15.6039 30.0408C15.5236 30.0075 15.4506 29.9586 15.3892 29.8971L17.012 31.5199C17.136 31.6434 17.3038 31.7128 17.4788 31.7128C17.6538 31.7128 17.8217 31.6434 17.9457 31.5199L20.2576 29.2081C20.3803 29.0842 20.4492 28.9168 20.4492 28.7424C20.4492 28.568 20.3803 28.4007 20.2576 28.2768L18.6373 26.654Z" fill="white"/>
</g>
<defs>
<linearGradient id="paint0_linear_89_993" x1="29.0478" y1="14.2605" x2="8.29663" y2="23.4722" gradientUnits="userSpaceOnUse">
<stop stop-color="#C913B9"/>
<stop offset="0.500947" stop-color="#F9373F"/>
<stop offset="1" stop-color="#FECD00"/>
</linearGradient>
<clipPath id="clip0_89_993">
<rect width="37" height="37" fill="white" transform="translate(0.5)"/>
</clipPath>
</defs>
</svg>
