<svg width="326" height="32" fill="none" xmlns="http://www.w3.org/2000/svg"><path d="M.5 16.008V6.54c0-.264.088-.308.352-.352H11.16c.176 0 .308 0 .484.044.044 0 .088.044.132.088.044.044.044.088.044.176v2.378c0 .088-.132.22-.22.22H4.288c-1.057 0-.925-.132-.925.925v12.377c0 .22.088.308.264.308 1.19 0 2.423 0 3.612-.044.484 0 .925-.088 1.365-.264.881-.308 1.498-.837 1.85-1.718.044-.132.088-.308.132-.484a5.063 5.063 0 0 0 0-1.63c-.176-.793-.617-1.41-1.365-1.718a4.234 4.234 0 0 0-1.278-.352c-.22 0-.44-.044-.66-.044-.264 0-.397-.132-.485-.353-.176-.44-.352-.924-.528-1.365-.132-.352-.309-.704-.44-1.057-.045-.132.043-.264.175-.264.837 0 1.718 0 2.555.132.573.088 1.145.22 1.674.44 1.453.573 2.466 1.586 2.995 3.084.616 1.63.616 3.259-.044 4.888-.529 1.322-1.454 2.29-2.687 2.951a6.838 6.838 0 0 1-2.907.793H1.117c-.133 0-.265 0-.397-.044-.088 0-.132-.088-.132-.176v-.837C.5 21.866.5 18.959.5 16.008ZM95.282 5.922c1.102 0 2.159.133 3.172.44a9.656 9.656 0 0 1 3.127 1.63c.881.705 1.585 1.498 2.246 2.379.088.132.088.264-.044.352-.749.529-1.498 1.013-2.202 1.542a.272.272 0 0 1-.309-.044 2.416 2.416 0 0 0-.308-.397c-1.057-1.453-2.51-2.378-4.228-2.774-2.246-.529-4.228.044-5.946 1.585-1.454 1.321-2.158 2.995-2.246 4.933a7.737 7.737 0 0 0 .44 2.995c.881 2.29 2.51 3.788 4.933 4.36.969.22 1.982.177 2.951 0a6.423 6.423 0 0 0 1.938-.704 6.958 6.958 0 0 0 2.466-2.335 2.43 2.43 0 0 1 .309-.396c.044-.044.088 0 .132 0 .044 0 .044 0 .088.044l1.982 1.453c.132.088.176.22.088.353-.044.088-.088.132-.132.22a10.265 10.265 0 0 1-1.894 2.246c-1.321 1.145-2.819 1.85-4.537 2.202-1.1.22-2.202.265-3.259.133-2.114-.265-4.008-1.102-5.55-2.6-1.365-1.32-2.246-2.95-2.686-4.8-.529-2.246-.44-4.448.396-6.606.97-2.51 2.731-4.317 5.197-5.418 1.234-.616 2.555-.837 3.876-.793ZM53.44 16.052c0-1.63.265-3.127.925-4.536 1.322-2.819 3.524-4.625 6.563-5.33 2.07-.484 4.096-.308 6.078.397a9.174 9.174 0 0 1 3.171 1.982 10.123 10.123 0 0 1 1.542 1.806c.132.22.132.264-.044.396-.75.529-1.498 1.013-2.247 1.542a.271.271 0 0 1-.308-.044c-.132-.133-.22-.309-.352-.44-1.234-1.586-2.863-2.555-4.845-2.82-1.982-.264-3.744.309-5.241 1.674a6.61 6.61 0 0 0-2.114 3.612c-.485 2.246-.133 4.36 1.277 6.21 1.321 1.718 3.127 2.598 5.33 2.598 1.188 0 2.29-.264 3.347-.792.88-.44 1.585-1.057 2.202-1.85.088-.088.132-.176.176-.264.176-.22.352-.485.528-.705.265-.044.44.22.617.352.088.044.176.132.264.176.44.309.881.661 1.322.97.132.087.132.176.044.352-1.498 2.466-3.612 4.052-6.475 4.624a10.69 10.69 0 0 1-3.347.133c-2.114-.265-4.008-1.102-5.55-2.643-1.365-1.366-2.246-2.995-2.73-4.889-.044-.88-.133-1.718-.133-2.51ZM28.6 16.008V6.45c0-.175.088-.22.264-.22h10.439c.088 0 .132.089.132.177V9.05c0 .044-.088.132-.176.176-.088.044-.176.044-.264.044h-6.827c-.176 0-.309 0-.485.044-.044 0-.088.044-.132.088-.044.044-.044.088-.044.176v4.008c0 .176.088.264.264.264h5.858c.088 0 .176.044.176.132 0 .045.044.088.044.177v2.378c0 .044 0 .132-.044.176-.044.044-.088.088-.132.088-.22 0-.44.044-.66.044h-4.757c-.176 0-.397 0-.573.044-.044 0-.088.044-.132.088-.044.044-.044.088-.044.177v5.329c0 .132.088.264.264.264H39.126c.265 0 .309.088.309.352V25.566c0 .088-.088.176-.22.22h-9.998c-.176 0-.308 0-.485-.044-.044 0-.088-.044-.132-.088-.044-.088-.044-.176-.044-.22v-1.057c.044-2.775.044-5.594.044-8.369ZM248.688 16V6.441c0-.132.088-.264.264-.264h2.466c.088 0 .22.088.22.22v13.257c0 .176-.044.396.045.573 0 0 .044.044.088.044.044-.044.132-.088.176-.177l.793-1.32c2.114-3.656 4.272-7.268 6.386-10.924.308-.528.617-1.013.925-1.541.616-.132 1.233-.044 1.894-.088h1.233c.088 0 .22.088.22.22v.66c0 5.902 0 11.804-.044 17.75v.749c0 .088-.132.22-.22.22h-2.467c-.132 0-.264-.088-.264-.264V12.784c0-.264-.044-.528-.044-.837l-.044-.044c-.044 0-.088-.044-.088 0-.088.088-.176.22-.22.309a256.761 256.761 0 0 0-2.731 4.668c-1.674 2.819-3.303 5.682-4.977 8.5-.044.089-.088.133-.132.22-.088.177-.22.221-.396.221h-2.775c-.132 0-.264-.088-.264-.264v-1.014c-.044-2.862-.044-5.68-.044-8.544ZM278.505 16V6.705c0-.44.044-.484.44-.484h2.247c.132 0 .264.088.264.264v.837c0 4.888.044 9.733.044 14.622 0 .264 0 .529.044.837 0 .044.044.088.088.132.176 0 .396.044.573.044h7.179c.176 0 .308 0 .484-.044.044 0 .132-.088.176-.132.045-.132.045-.264.045-.396V7.235c0-.265 0-.529.044-.837 0-.044.044-.088.088-.132.044-.044.088-.044.176-.044h2.378c.176 0 .264.088.264.308V22.738c0 .044.133.132.177.132h1.541c1.145 0 1.013-.088 1.013 1.013v4.272c0 .177 0 .309-.044.485 0 .044-.088.132-.132.176h-2.555c-.088 0-.22-.088-.22-.22v-2.378c0-.089 0-.22-.044-.309 0-.044-.088-.088-.132-.088-.264 0-.528-.044-.837-.044h-12.332c-.264 0-.529 0-.837-.044-.044 0-.088-.044-.132-.088-.044-.088-.044-.22-.044-.308v-1.894c.088-2.467.088-4.977.044-7.444ZM203.278 16.087v9.558c0 .088-.088.176-.22.176h-2.555c-.088 0-.22-.088-.22-.22v-7.576c0-.264 0-.484-.044-.748 0-.088-.088-.133-.132-.177-.088-.044-.22-.044-.308-.044h-7.4c-.088 0-.22 0-.308.044-.088 0-.132.088-.132.177v7.708c0 .22 0 .44-.044.66 0 .044-.044.088-.088.132-.044.044-.088.044-.176.044h-2.467c-.176 0-.264-.088-.264-.264V7.147c0-1.058-.088-.925.925-.925h1.894c.132 0 .22.088.264.264v7.487c0 .088.088.132.176.132h7.532c.176 0 .308 0 .484-.044.044 0 .088-.044.132-.088.044-.044.044-.088.044-.176V6.618c0-.44.044-.484.441-.484h1.541c1.145 0 1.013-.177 1.013.968-.088 3.083-.088 6.034-.088 8.985ZM218.826 15.955V7.191c0-.265 0-.529.044-.837 0-.044.088-.088.132-.088H221.645c.132 0 .22.088.22.264V13.973c0 .044.132.132.176.132h7.619c.133 0 .265 0 .397-.044.044 0 .088-.044.132-.088.044-.044.044-.088.044-.176V6.75c0-.572.044-.572.529-.572h2.246c.176 0 .264.088.308.308V25.557c0 .088-.132.22-.22.22h-2.555c-.132 0-.22-.088-.22-.264v-7.664c0-.22 0-.44-.044-.66 0-.044-.088-.089-.132-.089-.088-.044-.22-.044-.308-.044h-7.4c-.088 0-.22 0-.308.044-.088 0-.176.088-.176.133-.044.22-.044.44-.044.66v7.664c0 .176-.088.22-.264.22h-2.115c-.572 0-.616 0-.616-.573V24.06c-.088-2.686-.088-5.373-.088-8.104Z" fill="#2B2A29"/><path fill-rule="evenodd" clip-rule="evenodd" d="M318.629 6.222h-1.497c-.397 0-.837 0-1.234.044a.862.862 0 0 0-.154.022.861.861 0 0 1-.154.022c-.044 0-.132.044-.132.088a1.481 1.481 0 0 1-.07.163c-.038.083-.08.172-.106.277-.551 1.564-1.09 3.127-1.63 4.69a727.275 727.275 0 0 1-1.63 4.692c-.484 1.365-.958 2.73-1.431 4.096-.473 1.365-.947 2.73-1.431 4.096-.044.154-.1.308-.155.462-.055.154-.11.309-.154.463-.022.044-.033.099-.044.154a.632.632 0 0 1-.044.154c0 .088.044.176.132.176h2.775c.132 0 .22-.044.264-.176l.132-.396c.177-.529.353-1.046.529-1.564.176-.517.352-1.035.529-1.564a2.14 2.14 0 0 0 .066-.154c.022-.055.044-.11.066-.154.044-.132.132-.176.264-.176H320.787c.132 0 .22.088.264.176.107.213.184.453.257.677.017.055.034.108.052.16.122.366.251.739.381 1.116.199.576.401 1.161.588 1.747.044.176.132.264.352.264h2.687c.088 0 .132-.088.132-.176a3.247 3.247 0 0 0-.176-.617c-.463-1.365-.936-2.72-1.41-4.074-.473-1.354-.947-2.708-1.409-4.074a529.63 529.63 0 0 1-2.687-7.663 69.275 69.275 0 0 0-.484-1.388c-.165-.462-.331-.925-.485-1.387 0-.088-.088-.176-.22-.176Zm-3.7 12.42h2.114c.661 0 1.366 0 2.07.044h.573c.176 0 .264-.132.22-.264a.632.632 0 0 1-.044-.154.632.632 0 0 0-.044-.155c-.749-2.202-1.497-4.36-2.246-6.518-.066-.154-.121-.308-.176-.463a7.296 7.296 0 0 0-.177-.462c0-.027-.016-.038-.04-.052-.014-.009-.031-.02-.048-.036 0 0-.044 0-.044.044-.088.176-.176.352-.22.529-.396 1.167-.804 2.345-1.211 3.523-.407 1.178-.815 2.356-1.211 3.523 0 .019-.008.045-.017.075-.012.043-.027.094-.027.146 0 .044.088.176.132.176.132.044.264.044.396.044Z" fill="#2B2A29"/><path d="M143.291.706c.088-.044.22-.088.308-.132 2.466-.353 4.889-.485 7.355-.309 1.321.088 2.599.265 3.92.485a51.367 51.367 0 0 1 9.249 2.554c3.171 1.234 6.166 2.82 8.897 4.89a29.888 29.888 0 0 1 5.021 4.712c.617.749 1.189 1.497 1.674 2.334.132.264.308.529.44.793a.271.271 0 0 1-.044.308c-.264.309-.484.573-.749.881a49.616 49.616 0 0 1-6.342 5.814 46.94 46.94 0 0 1-6.871 4.448c-2.774 1.454-5.681 2.599-8.72 3.348-1.762.44-3.524.748-5.33.837l-2.642.132c-1.63.044-3.216-.044-4.845-.132-.088 0-.176-.044-.22-.044.396-.44.925-.309 1.365-.353 2.951-.396 5.55-1.497 7.928-3.26.176-.131.352-.263.572-.351 3.172-.705 6.255-1.674 9.206-2.995 3.303-1.498 6.254-3.436 9.073-5.726.837-.66 1.629-1.41 2.334-2.202.617-.661.617-.837 0-1.41-2.687-2.598-5.638-4.845-8.897-6.65a39.267 39.267 0 0 0-12.068-4.36c-1.233-.705-2.378-1.63-3.744-2.159a18.109 18.109 0 0 0-5.902-1.233c-.44 0-.748.044-.968-.22ZM132.191 25.987c.397.396.793.837 1.189 1.233a15.694 15.694 0 0 0 4.361 2.995c.484.22.969.396 1.453.573.088.044.22.088.264.176-.264.044-.484 0-.748-.044-3.436-.749-6.739-1.894-9.866-3.524-2.687-1.41-5.153-3.083-7.399-5.109a38.576 38.576 0 0 1-5.858-6.43l-.265-.397a.213.213 0 0 1 0-.308c.177-.176.309-.308.485-.44a62.566 62.566 0 0 1 5.682-4.537 57.499 57.499 0 0 1 5.197-3.303c2.686-1.542 5.505-2.907 8.456-4.008.661-.22 1.277-.44 1.938-.66.22-.089.441-.089.617-.177 0 .044 0 .132-.044.132-.088.088-.221.132-.353.22-1.453.705-2.686 1.63-3.876 2.687-.748.705-1.365 1.454-1.982 2.29-.176.22-.308.44-.484.661a5.3 5.3 0 0 1-1.145.793c-3.303 1.806-6.298 4.008-9.117 6.518-.881.793-.881.793-.132 1.718a31.036 31.036 0 0 0 9.865 8.016c.661.264 1.278.528 1.762.925Z" fill="#2B2A29"/><path fill-rule="evenodd" clip-rule="evenodd" d="M144.26 31.8c8.635 0 15.635-7 15.635-15.635S152.895.53 144.26.53c-8.636 0-15.636 7-15.636 15.635s7 15.636 15.636 15.636Zm.22-2.642c7.297 0 13.213-5.916 13.213-13.213 0-7.298-5.916-13.213-13.213-13.213-7.298 0-13.213 5.915-13.213 13.213 0 7.297 5.915 13.213 13.213 13.213Z" fill="#E42127"/><path fill-rule="evenodd" clip-rule="evenodd" d="M144.479 27.396c6.325 0 11.452-5.127 11.452-11.451 0-6.325-5.127-11.452-11.452-11.452-6.324 0-11.451 5.127-11.451 11.452 0 6.324 5.127 11.451 11.451 11.451Zm4.625-11.451a3.303 3.303 0 1 0 0-6.607 3.303 3.303 0 0 0 0 6.607Z" fill="#E42127"/></svg>